<?xml version="1.0" encoding="utf-8"?>
<!-- Generator: Adobe Illustrator 28.0.0, SVG Export Plug-In . SVG Version: 6.00 Build 0)  -->
<svg version="1.1" id="Warstwa_2" xmlns="http://www.w3.org/2000/svg" xmlns:xlink="http://www.w3.org/1999/xlink" x="0px" y="0px"
	 viewBox="0 0 33.9 24.5" style="enable-background:new 0 0 33.9 24.5;" xml:space="preserve">
<g>
	<path d="M21,3.1v12.6h-8.2V3.1H21 M22,2.1H11.9v14.6H22V2.1L22,2.1z"/>
</g>
<g>
	<path d="M14.1,14.3V4.6h1.7v8h4.3v1.6H14.1z"/>
</g>
<g>
	<path d="M1.6,21.1v-2.5h0.5v2.1h1.2v0.4H1.6z"/>
	<path d="M3.6,19.9c0-0.3,0-0.5,0.1-0.6c0.1-0.1,0.1-0.2,0.2-0.3c0.1-0.1,0.2-0.2,0.3-0.2c0.1-0.1,0.3-0.1,0.5-0.1
		c0.4,0,0.6,0.1,0.8,0.3s0.3,0.5,0.3,1c0,0.4-0.1,0.7-0.3,0.9c-0.2,0.2-0.5,0.3-0.8,0.3c-0.4,0-0.6-0.1-0.8-0.3
		C3.7,20.6,3.6,20.3,3.6,19.9z M4.1,19.9c0,0.3,0.1,0.5,0.2,0.6s0.3,0.2,0.5,0.2c0.2,0,0.3-0.1,0.5-0.2c0.1-0.1,0.2-0.4,0.2-0.7
		c0-0.3-0.1-0.5-0.2-0.6S4.9,19,4.7,19c-0.2,0-0.4,0.1-0.5,0.2C4.1,19.4,4.1,19.6,4.1,19.9z"/>
	<path d="M7.4,20.2v-0.4h1v1C8.3,20.9,8.1,21,8,21.1c-0.2,0.1-0.4,0.1-0.6,0.1c-0.2,0-0.5-0.1-0.7-0.2s-0.3-0.3-0.4-0.5
		c-0.1-0.2-0.1-0.4-0.1-0.7c0-0.3,0.1-0.5,0.2-0.7c0.1-0.2,0.3-0.4,0.5-0.5c0.2-0.1,0.3-0.1,0.6-0.1c0.3,0,0.5,0.1,0.7,0.2
		c0.2,0.1,0.3,0.3,0.3,0.5l-0.5,0.1c0-0.1-0.1-0.2-0.2-0.3C7.6,19.1,7.5,19,7.3,19c-0.2,0-0.4,0.1-0.5,0.2c-0.1,0.1-0.2,0.3-0.2,0.6
		c0,0.3,0.1,0.5,0.2,0.7c0.1,0.1,0.3,0.2,0.5,0.2c0.1,0,0.2,0,0.3-0.1c0.1,0,0.2-0.1,0.3-0.2v-0.3H7.4z"/>
	<path d="M8.7,19.9c0-0.3,0-0.5,0.1-0.6C8.9,19.1,9,19,9.1,18.9c0.1-0.1,0.2-0.2,0.3-0.2c0.1-0.1,0.3-0.1,0.5-0.1
		c0.4,0,0.6,0.1,0.8,0.3s0.3,0.5,0.3,1c0,0.4-0.1,0.7-0.3,0.9c-0.2,0.2-0.5,0.3-0.8,0.3c-0.4,0-0.6-0.1-0.8-0.3
		C8.8,20.6,8.7,20.3,8.7,19.9z M9.2,19.9c0,0.3,0.1,0.5,0.2,0.6s0.3,0.2,0.5,0.2c0.2,0,0.3-0.1,0.5-0.2c0.1-0.1,0.2-0.4,0.2-0.7
		c0-0.3-0.1-0.5-0.2-0.6S10.1,19,9.9,19c-0.2,0-0.4,0.1-0.5,0.2C9.3,19.4,9.2,19.6,9.2,19.9z"/>
	<path d="M12.4,21.1v-2.5h0.5v2.1H14v0.4H12.4z"/>
	<path d="M14.3,19.9c0-0.3,0-0.5,0.1-0.6c0.1-0.1,0.1-0.2,0.2-0.3c0.1-0.1,0.2-0.2,0.3-0.2c0.1-0.1,0.3-0.1,0.5-0.1
		c0.4,0,0.6,0.1,0.8,0.3s0.3,0.5,0.3,1c0,0.4-0.1,0.7-0.3,0.9c-0.2,0.2-0.5,0.3-0.8,0.3c-0.4,0-0.6-0.1-0.8-0.3
		C14.4,20.6,14.3,20.3,14.3,19.9z M14.8,19.9c0,0.3,0.1,0.5,0.2,0.6s0.3,0.2,0.5,0.2c0.2,0,0.3-0.1,0.5-0.2c0.1-0.1,0.2-0.4,0.2-0.7
		c0-0.3-0.1-0.5-0.2-0.6S15.6,19,15.4,19c-0.2,0-0.4,0.1-0.5,0.2C14.8,19.4,14.8,19.6,14.8,19.9z"/>
	<path d="M18.1,20.2v-0.4h1v1c-0.1,0.1-0.2,0.2-0.4,0.3c-0.2,0.1-0.4,0.1-0.6,0.1c-0.2,0-0.5-0.1-0.7-0.2s-0.3-0.3-0.4-0.5
		c-0.1-0.2-0.1-0.4-0.1-0.7c0-0.3,0.1-0.5,0.2-0.7c0.1-0.2,0.3-0.4,0.5-0.5c0.2-0.1,0.3-0.1,0.6-0.1c0.3,0,0.5,0.1,0.7,0.2
		c0.2,0.1,0.3,0.3,0.3,0.5l-0.5,0.1c0-0.1-0.1-0.2-0.2-0.3c-0.1-0.1-0.2-0.1-0.3-0.1c-0.2,0-0.4,0.1-0.5,0.2
		c-0.1,0.1-0.2,0.3-0.2,0.6c0,0.3,0.1,0.5,0.2,0.7c0.1,0.1,0.3,0.2,0.5,0.2c0.1,0,0.2,0,0.3-0.1c0.1,0,0.2-0.1,0.3-0.2v-0.3H18.1z"
		/>
	<path d="M19.5,19.9c0-0.3,0-0.5,0.1-0.6c0.1-0.1,0.1-0.2,0.2-0.3c0.1-0.1,0.2-0.2,0.3-0.2c0.1-0.1,0.3-0.1,0.5-0.1
		c0.4,0,0.6,0.1,0.8,0.3s0.3,0.5,0.3,1c0,0.4-0.1,0.7-0.3,0.9c-0.2,0.2-0.5,0.3-0.8,0.3c-0.4,0-0.6-0.1-0.8-0.3
		C19.6,20.6,19.5,20.3,19.5,19.9z M19.9,19.9c0,0.3,0.1,0.5,0.2,0.6s0.3,0.2,0.5,0.2c0.2,0,0.3-0.1,0.5-0.2c0.1-0.1,0.2-0.4,0.2-0.7
		c0-0.3-0.1-0.5-0.2-0.6S20.8,19,20.6,19c-0.2,0-0.4,0.1-0.5,0.2C20,19.4,19.9,19.6,19.9,19.9z"/>
	<path d="M23.1,21.1v-2.5h0.5v2.1h1.2v0.4H23.1z"/>
	<path d="M25,19.9c0-0.3,0-0.5,0.1-0.6c0.1-0.1,0.1-0.2,0.2-0.3c0.1-0.1,0.2-0.2,0.3-0.2c0.1-0.1,0.3-0.1,0.5-0.1
		c0.4,0,0.6,0.1,0.8,0.3s0.3,0.5,0.3,1c0,0.4-0.1,0.7-0.3,0.9c-0.2,0.2-0.5,0.3-0.8,0.3c-0.4,0-0.6-0.1-0.8-0.3
		C25.1,20.6,25,20.3,25,19.9z M25.5,19.9c0,0.3,0.1,0.5,0.2,0.6s0.3,0.2,0.5,0.2c0.2,0,0.3-0.1,0.5-0.2c0.1-0.1,0.2-0.4,0.2-0.7
		c0-0.3-0.1-0.5-0.2-0.6S26.3,19,26.1,19c-0.2,0-0.4,0.1-0.5,0.2C25.5,19.4,25.5,19.6,25.5,19.9z"/>
	<path d="M28.8,20.2v-0.4h1v1c-0.1,0.1-0.2,0.2-0.4,0.3c-0.2,0.1-0.4,0.1-0.6,0.1c-0.2,0-0.5-0.1-0.7-0.2s-0.3-0.3-0.4-0.5
		c-0.1-0.2-0.1-0.4-0.1-0.7c0-0.3,0.1-0.5,0.2-0.7c0.1-0.2,0.3-0.4,0.5-0.5c0.2-0.1,0.3-0.1,0.6-0.1c0.3,0,0.5,0.1,0.7,0.2
		c0.2,0.1,0.3,0.3,0.3,0.5l-0.5,0.1c0-0.1-0.1-0.2-0.2-0.3C29,19.1,28.9,19,28.8,19c-0.2,0-0.4,0.1-0.5,0.2
		c-0.1,0.1-0.2,0.3-0.2,0.6c0,0.3,0.1,0.5,0.2,0.7c0.1,0.1,0.3,0.2,0.5,0.2c0.1,0,0.2,0,0.3-0.1c0.1,0,0.2-0.1,0.3-0.2v-0.3H28.8z"
		/>
	<path d="M30.2,19.9c0-0.3,0-0.5,0.1-0.6c0.1-0.1,0.1-0.2,0.2-0.3c0.1-0.1,0.2-0.2,0.3-0.2c0.1-0.1,0.3-0.1,0.5-0.1
		c0.4,0,0.6,0.1,0.8,0.3c0.2,0.2,0.3,0.5,0.3,1c0,0.4-0.1,0.7-0.3,0.9c-0.2,0.2-0.5,0.3-0.8,0.3c-0.4,0-0.6-0.1-0.8-0.3
		C30.3,20.6,30.2,20.3,30.2,19.9z M30.7,19.9c0,0.3,0.1,0.5,0.2,0.6s0.3,0.2,0.5,0.2c0.2,0,0.3-0.1,0.5-0.2c0.1-0.1,0.2-0.4,0.2-0.7
		c0-0.3-0.1-0.5-0.2-0.6S31.5,19,31.3,19c-0.2,0-0.4,0.1-0.5,0.2C30.7,19.4,30.7,19.6,30.7,19.9z"/>
</g>
</svg>
